#!OML:ASF E:\pregnant2\Project 1\Capture day 1\Session 1\pregnant2.ASF
:FULLY-SPECIFIED
:DEGREES
1637
root 5.93132 24.5552 -12.3308 -331.252 -1.32275 1.45129
lowerback -11.6172 -0.249446 -0.844162
upperback -11.9988 -0.262955 0.586965
thorax -6.16153 -0.0470311 1.07434
lowerneck -8.7034 -2.12517 -6.16732
upperneck 52.414 1.05092 -5.05492
head 25.0743 -1.4697 -1.59887
rclavicle 1.65861e-015 2.38542e-015
rhumerus -53.4316 3.37703 -67.0609
rradius 36.0486
rwrist 6.87043
rhand -12.8337 -9.49411
rfingers 7.12502
rthumb 13.2535 -39.0527
lclavicle 1.65861e-015 2.38542e-015
lhumerus -51.0289 1.18006 80.6586
lradius 47.8385
lwrist -1.27742
lhand -7.09955 25.77
lfingers 7.12502
lthumb 18.7751 54.8839
rfemur -70.9477 2.63295 14.8374
rtibia 34.9581
rfoot -1.28149 -19.754
rtoes 5.39464
lfemur -47.0145 -9.27989 -29.5224
ltibia 45.5319
lfoot -21.4295 13.852
ltoes -8.00101
1638
root 5.93207 24.5404 -12.2699 -331.385 -1.22311 1.48325
lowerback -11.5323 -0.239928 -0.78356
upperback -11.9847 -0.254192 0.583202
thorax -6.19241 -0.0469151 1.03722
lowerneck -8.75537 -2.20778 -6.32342
upperneck 52.4287 0.978242 -5.06633
head 25.1243 -1.52971 -1.59419
rclavicle 9.44227e-016 2.38542e-015
rhumerus -53.5428 3.35559 -67.113
rradius 36.0079
rwrist 6.88087
rhand -12.636 -9.71523
rfingers 7.12502
rthumb 13.4441 -39.2614
lclavicle 9.44227e-016 2.38542e-015
lhumerus -51.1305 1.42085 80.5687
lradius 47.4306
lwrist -1.47527
lhand -7.1322 25.8498
lfingers 7.12502
lthumb 18.7437 54.9668
rfemur -70.579 3.17725 14.0754
rtibia 34.1758
rfoot -1.50363 -20.2942
rtoes 5.10457
lfemur -46.7114 -9.19305 -29.6512
ltibia 45.7591
lfoot -21.7604 13.8761
ltoes -8.32523
1639
root 5.92857 24.5207 -12.2164 -331.415 -0.980768 1.53869
lowerback -11.4853 -0.280635 -0.737638
upperback -12.0983 -0.310447 0.589642
thorax -6.34322 -0.0767847 1.01585
lowerneck -8.51087 -2.24766 -6.44861
upperneck 52.4851 0.937432 -5.08055
head 25.0799 -1.57111 -1.58447
rclavicle -2.36057e-015 1.19271e-015
rhumerus -53.8353 3.40919 -67.1826
rradius 35.9589
rwrist 6.82296
rhand -12.5216 -9.88051
rfingers 7.12502
rthumb 13.5543 -39.4193
lclavicle -2.36057e-015 1.19271e-015
lhumerus -51.4702 1.58148 80.4891
lradius 47.1118
lwrist -1.61072
lhand -7.19169 25.8968
lfingers 7.12502
lthumb 18.6864 55.0193
rfemur -70.3319 3.73625 13.1451
rtibia 33.4699
rfoot -1.97082 -21.1838
rtoes 5.02082
lfemur -46.5754 -9.19107 -29.7263
ltibia 46.0008
lfoot -22.0537 13.7994
ltoes -8.52527
1640
root 5.92638 24.4998 -12.1603 -331.44 -0.791426 1.58892
lowerback -11.6375 -0.310031 -0.697211
upperback -12.0456 -0.350241 0.595276
thorax -6.20039 -0.100298 0.995733
lowerneck -8.46262 -2.30554 -6.59933
upperneck 52.425 0.881354 -5.07585
head 24.9891 -1.6211 -1.55604
rclavicle 7.01958e-016 5.1684e-015
rhumerus -53.819 3.33351 -67.2265
rradius 35.8351
rwrist 6.8729
rhand -12.4705 -9.87549
rfingers 7.12502
rthumb 13.6036 -39.411
lclavicle 7.01958e-016 5.1684e-015
lhumerus -51.4732 1.91579 80.3573
lradius 46.6776
lwrist -1.82529
lhand -7.22062 25.9983
lfingers 7.12502
lthumb 18.6586 55.1234
rfemur -70.1084 4.33904 12.1818
rtibia 32.8626
rfoot -2.59826 -22.0987
rtoes 5.5661
lfemur -46.4555 -9.18774 -29.8072
ltibia 46.2944
lfoot -22.3522 13.7931
ltoes -8.92453
1641
root 5.92319 24.4886 -12.1067 -331.462 -0.74614 1.53351
lowerback -11.8098 -0.280105 -0.572448
upperback -12.0357 -0.317736 0.591735
thorax -6.09626 -0.0938495 0.923294
lowerneck -8.31762 -2.32367 -6.65728
upperneck 52.4147 0.88149 -5.12737
head 24.9126 -1.63732 -1.56969
rclavicle 7.64079e-016 -2.78299e-015
rhumerus -53.9478 3.34246 -67.3404
rradius 35.7764
rwrist 6.9153
rhand -12.3879 -9.84993
rfingers 7.12502
rthumb 13.6832 -39.3801
lclavicle 7.64079e-016 -2.78299e-015
lhumerus -51.7116 2.05944 80.2646
lradius 46.6308
lwrist -1.63842
lhand -6.95526 27.5779
lfingers 7.12502
lthumb 18.9139 56.6784
rfemur -69.8808 5.05726 11.3255
rtibia 32.34
rfoot -3.40889 -22.8863
rtoes 7.08069
lfemur -46.359 -9.12488 -29.7897
ltibia 46.6067
lfoot -22.6552 13.88
ltoes -9.17927
1642
root 5.92122 24.4587 -12.0463 -331.487 -0.486067 1.61708
lowerback -11.6731 -0.332871 -0.592509
upperback -12.166 -0.384783 0.618714
thorax -6.31441 -0.122905 0.960341
lowerneck -8.20783 -2.41127 -6.85821
upperneck 52.4754 0.768643 -5.08538
head 24.9392 -1.71575 -1.53172
rclavicle -1.10201e-014 -7.15625e-015
rhumerus -54.1971 3.36575 -67.3503
rradius 35.6488
rwrist 6.98902
rhand -12.4332 -9.27196
rfingers 7.12502
rthumb 13.6395 -38.8051
lclavicle -1.10201e-014 -7.15625e-015
lhumerus -52.039 2.30718 80.179
lradius 46.3025
lwrist -1.79239
lhand -6.98974 26.7668
lfingers 7.12502
lthumb 18.8807 55.8704
rfemur -69.6996 5.55864 10.4568
rtibia 31.9186
rfoot -3.63033 -23.7977
rtoes 6.83329
lfemur -46.2553 -9.14254 -29.8974
ltibia 46.9897
lfoot -23.0244 13.8318
ltoes -9.52069
1643
root 5.91817 24.4344 -11.9865 -331.502 -0.384262 1.64468
lowerback -11.8668 -0.332016 -0.583872
upperback -12.0889 -0.382433 0.6237
thorax -6.12283 -0.123001 0.959237
lowerneck -8.28342 -2.48942 -6.96209
upperneck 52.4673 0.699217 -5.11805
head 24.9727 -1.76501 -1.54755
rclavicle 2.99419e-015 -7.95139e-016
rhumerus -54.1567 3.30859 -67.4021
rradius 35.576
rwrist 7.06483
rhand -12.1958 -9.82227
rfingers 7.12502
rthumb 13.8683 -39.3399
lclavicle 2.99419e-015 -7.95139e-016
lhumerus -51.9003 2.70334 80.0344
lradius 45.7578
lwrist -1.96122
lhand -7.02124 27.3487
lfingers 7.12502
lthumb 18.8504 56.4553
rfemur -69.5289 6.10983 9.71559
rtibia 31.5601
rfoot -4.05608 -24.5366
rtoes 7.67534
lfemur -46.184 -9.14375 -29.9492
ltibia 47.389
lfoot -23.3788 13.9174
ltoes -9.90779
1644
root 5.91259 24.4062 -11.9268 -331.57 -0.247023 1.69196
lowerback -11.8364 -0.358653 -0.598032
upperback -12.092 -0.416134 0.62858
thorax -6.14213 -0.138314 0.970353
lowerneck -8.2647 -2.53346 -7.09232
upperneck 52.4752 0.654134 -5.09013
head 24.9785 -1.80542 -1.51519
rclavicle -2.79541e-015 4.37326e-015
rhumerus -54.2222 3.2693 -67.448
rradius 35.449
rwrist 7.20955
rhand -12.0194 -9.54583
rfingers 7.12502
rthumb 14.0383 -39.0517
lclavicle -2.79541e-015 4.37326e-015
lhumerus -52.1346 2.84932 79.9964
lradius 45.6983
lwrist -1.742
lhand -7.39821 27.065
lfingers 7.12502
lthumb 18.4878 56.2065
rfemur -69.311 6.5834 9.0842
rtibia 31.2859
rfoot -4.43551 -25.2429
rtoes 8.37819
lfemur -46.075 -9.08743 -30.0392
ltibia 47.8553
lfoot -23.7918 13.9311
ltoes -10.1493
1645
root 5.90706 24.3775 -11.8705 -331.571 -0.0572289 1.73591
lowerback -11.817 -0.398905 -0.629288
upperback -12.1214 -0.465592 0.657223
thorax -6.18402 -0.158853 1.01522
lowerneck -8.27196 -2.59598 -7.19131
upperneck 52.4718 0.600087 -5.12226
head 24.9849 -1.84814 -1.52669
rclavicle 1.13059e-015 -1.98785e-015
rhumerus -54.2974 3.25373 -67.4928
rradius 35.3424
rwrist 7.40162
rhand -12.0613 -9.31276
rfingers 7.12502
rthumb 13.9979 -38.8215
lclavicle 1.13059e-015 -1.98785e-015
lhumerus -52.1596 3.20204 79.8672
lradius 45.1748
lwrist -1.90796
lhand -7.57124 26.7389
lfingers 7.12502
lthumb 18.3214 55.8961
rfemur -69.1446 7.00487 8.4857
rtibia 31.0486
rfoot -4.82764 -25.9496
rtoes 9.24053
lfemur -46.0629 -9.0823 -30.0949
ltibia 48.322
lfoot -24.1921 13.922
ltoes -10.5969
1646
root 5.90263 24.3473 -11.8079 -331.578 0.0173198 1.72614
lowerback -11.9344 -0.392376 -0.632253
upperback -12.1147 -0.454613 0.678596
thorax -6.11272 -0.152172 1.0392
lowerneck -8.1928 -2.66298 -7.34715
upperneck 52.432 0.503085 -5.07574
head 24.9042 -1.91005 -1.48194
rclavicle -8.3738e-015 -3.97569e-016
rhumerus -54.3514 3.24087 -67.5341
rradius 35.1961
rwrist 7.60857
rhand -12.1144 -9.08837
rfingers 7.12502
rthumb 13.9468 -38.6006
lclavicle -8.3738e-015 -3.97569e-016
lhumerus -52.2696 3.45097 79.7847
lradius 44.8818
lwrist -1.93662
lhand -7.39247 27.0247
lfingers 7.12502
lthumb 18.4933 56.1656
rfemur -68.9769 7.32266 8.21608
rtibia 30.8794
rfoot -4.9726 -26.3547
rtoes 9.71318
lfemur -46.0332 -8.94278 -30.1648
ltibia 48.8362
lfoot -24.591 13.9757
ltoes -10.9896
